<svg width="40" height="40" viewBox="0 0 40 40" fill="none" xmlns="http://www.w3.org/2000/svg">
<path d="M17.8127 35.625H22.1876L22.1626 28.125H24.0376L24.0626 35.625H25.6501C26.5626 35.625 27.3251 36.275 27.4876 37.1375C27.5251 37.325 27.3751 37.5 27.1751 37.5H12.8002C12.6002 37.5 12.4502 37.325 12.4877 37.1375C12.6627 36.275 13.4127 35.625 14.3252 35.625H15.9377L15.9127 28.125H17.7877L17.8127 35.625Z" fill="#FF822D"/>
<path d="M14.3377 18.25C14.3502 16.6 13.8752 15.05 13.0627 13.75L2.88771 23.925C2.23771 24.575 2.47521 25.675 3.33771 25.975C4.21271 26.2875 5.16271 26.45 6.15021 26.4375C10.6252 26.3875 14.2877 22.7375 14.3377 18.25Z" fill="#F9C23C"/>
<path d="M25.6502 18.2625C25.6377 16.6 26.1002 15.05 26.9252 13.75L37.1002 23.9375C37.7502 24.5875 37.5127 25.6875 36.6502 25.9875C35.7752 26.3 34.8252 26.4625 33.8377 26.45C29.3627 26.4 25.7002 22.75 25.6502 18.2625Z" fill="#F9C23C"/>
<path d="M28.9873 15.7625C28.8248 15.5375 28.7373 15.275 28.7373 15C28.7373 10.4375 25.2498 6.7 20.7998 6.2875C20.5373 6.2625 20.2623 6.25 19.9873 6.25C19.7123 6.25 19.4373 6.2625 19.1748 6.2875C14.7248 6.7 11.2373 10.45 11.2373 15C11.2373 15.275 11.1498 15.5375 10.9873 15.7625C9.5748 17.6375 8.7373 19.975 8.7373 22.5C8.7373 28.7125 13.7748 33.75 19.9873 33.75C26.1998 33.75 31.2373 28.7125 31.2373 22.5C31.2373 19.975 30.3998 17.6375 28.9873 15.7625Z" fill="#FCD53F"/>
<path d="M16.25 13.125C16.25 13.4702 15.9702 13.75 15.625 13.75C15.2798 13.75 15 13.4702 15 13.125C15 12.7798 15.2798 12.5 15.625 12.5C15.9702 12.5 16.25 12.7798 16.25 13.125Z" fill="#212121"/>
<path d="M25 13.125C25 13.4702 24.7202 13.75 24.375 13.75C24.0298 13.75 23.75 13.4702 23.75 13.125C23.75 12.7798 24.0298 12.5 24.375 12.5C24.7202 12.5 25 12.7798 25 13.125Z" fill="#212121"/>
<path d="M19.9873 12.5C18.6123 12.5 17.4873 13.625 17.4873 15H22.4873C22.4873 13.625 21.3623 12.5 19.9873 12.5Z" fill="#FF822D"/>
</svg>
