<svg width="40" height="40" viewBox="0 0 40 40" fill="none" xmlns="http://www.w3.org/2000/svg">
<path d="M10 16.106C10 17.4867 8.88071 18.606 7.5 18.606C6.11929 18.606 5 17.4867 5 16.106C5 14.7253 6.11929 13.606 7.5 13.606C8.88071 13.606 10 14.7253 10 16.106Z" fill="#FDBB11"/>
<path d="M25 16.25C25 17.6307 23.8807 18.75 22.5 18.75C21.1193 18.75 20 17.6307 20 16.25C20 14.8693 21.1193 13.75 22.5 13.75C23.8807 13.75 25 14.8693 25 16.25Z" fill="#FDBB11"/>
<path d="M27.5 37.5V37.0202C27.5 30.3888 21.9069 25 15 25C8.09309 25.0123 2.5 30.3888 2.5 37.0202V37.5H27.5Z" fill="#00A6ED"/>
<path d="M15 29.375C13.2738 29.375 11.875 27.8556 11.875 25.9806V23.75H18.125V25.9806C18.125 27.8556 16.7262 29.375 15 29.375Z" fill="#FCB100"/>
<path d="M23.4396 6.22082L22.7746 5.88832C22.2996 5.65082 21.8721 5.33415 21.4921 4.96999L20.1937 3.67165C19.2121 2.68999 17.7712 2.37332 16.4729 2.81665C15.6337 3.11749 14.7154 3.11749 13.8604 2.81665C12.7046 2.24665 11.3271 2.46832 10.4246 3.38665L8.82539 4.96999C8.44539 5.34999 8.01789 5.65082 7.54289 5.88832L6.87789 6.22082C5.64289 6.83832 4.97789 8.18415 5.21539 9.54582L6.10205 14.4067C6.19705 14.8975 6.60872 15.2458 7.09955 15.2617C12.0001 15.2617 16.7047 15.2458 23.2179 15.2458C23.6929 15.2142 24.1046 14.8658 24.1837 14.3908L25.0704 9.52999C25.3396 8.18415 24.6587 6.83832 23.4396 6.22082Z" fill="#F1A11E"/>
<path d="M6.98375 13.5912C6.96895 13.3786 6.95437 13.1698 6.94117 12.9817C6.9095 12.5225 7.0995 12.0792 7.432 11.7783L7.73283 11.525C8.12867 11.1767 8.35033 10.6542 8.35033 10.1317V8.75417C8.35033 8.37417 8.6195 8.02583 8.98367 7.93083C9.997 7.6775 12.1503 7.25 15.1428 7.25C18.1353 7.25 20.2887 7.6775 21.302 7.93083C21.682 8.02583 21.9353 8.35833 21.9353 8.75417V10.1158C21.9353 10.6542 22.157 11.1608 22.5528 11.5092L22.8853 11.7942C23.2213 12.0843 23.3952 12.507 23.3788 12.9486L22.7745 21.5475C22.5053 24.3025 20.3362 26.2659 17.692 26.2659H12.6253C9.98118 26.2659 7.81201 24.3025 7.54285 21.5475L6.98375 13.5912Z" fill="#FFC83D"/>
<path d="M31.2949 21.2532C31.2654 21.2489 31.2357 21.2447 31.2078 21.2342L28.845 20.3536L26.2897 21.2363C26.2634 21.2454 26.2357 21.2491 26.2081 21.2528C26.0553 21.2732 25.9375 21.4041 25.9375 21.5625V23.75H31.5625V21.5625C31.5625 21.4052 31.4462 21.275 31.2949 21.2532Z" fill="#00A6ED"/>
<path d="M32.5 37.5V23.6375C32.5 23.0125 32.0157 22.5 31.4252 22.5H26.0748C25.4843 22.5 25 23.0125 25 23.6375V37.5H32.5Z" fill="#3BC6F6"/>
<path d="M12.8381 16.25C13.2687 16.25 13.6207 15.8784 13.4571 15.48C13.1007 14.6116 12.2467 14 11.2499 14C10.253 14 9.399 14.6116 9.04256 15.48C8.87904 15.8784 9.23099 16.25 9.66163 16.25H12.8381Z" fill="white"/>
<path d="M17.2224 16.25C16.7917 16.25 16.4398 15.8784 16.6033 15.48C16.9597 14.6116 17.8137 14 18.8106 14C19.8074 14 20.6614 14.6116 21.0179 15.48C21.1814 15.8784 20.8294 16.25 20.3988 16.25H17.2224Z" fill="white"/>
<path d="M10.125 15.875C10.125 16.0045 10.1414 16.1301 10.1723 16.25H12.8382C12.9261 16.25 13.0106 16.2345 13.0882 16.2065C13.1123 16.0999 13.125 15.9889 13.125 15.875C13.125 15.0466 12.4534 14.375 11.625 14.375C10.7966 14.375 10.125 15.0466 10.125 15.875Z" fill="#7D4533"/>
<path d="M19.9356 15.875C19.9356 16.0045 19.9192 16.1301 19.8884 16.25H17.2224C17.1346 16.25 17.05 16.2345 16.9724 16.2065C16.9483 16.0999 16.9356 15.9889 16.9356 15.875C16.9356 15.0466 17.6072 14.375 18.4356 14.375C19.264 14.375 19.9356 15.0466 19.9356 15.875Z" fill="#7D4533"/>
<path d="M10.7251 15.9125C10.7251 16.0315 10.7473 16.1453 10.7877 16.25H12.5375C12.5779 16.1453 12.6001 16.0315 12.6001 15.9125C12.6001 15.3948 12.1804 14.975 11.6626 14.975C11.1448 14.975 10.7251 15.3948 10.7251 15.9125Z" fill="black"/>
<path d="M19.3356 15.9125C19.3356 16.0315 19.3135 16.1453 19.2731 16.25H17.5232C17.4828 16.1453 17.4606 16.0315 17.4606 15.9125C17.4606 15.3948 17.8804 14.975 18.3981 14.975C18.9159 14.975 19.3356 15.3948 19.3356 15.9125Z" fill="black"/>
<path d="M11.625 15.125C11.625 15.3321 11.4571 15.5 11.25 15.5C11.0429 15.5 10.875 15.3321 10.875 15.125C10.875 14.9179 11.0429 14.75 11.25 14.75C11.4571 14.75 11.625 14.9179 11.625 15.125Z" fill="white"/>
<path d="M18.4357 15.125C18.4357 15.3321 18.6036 15.5 18.8107 15.5C19.0178 15.5 19.1857 15.3321 19.1857 15.125C19.1857 14.9179 19.0178 14.75 18.8107 14.75C18.6036 14.75 18.4357 14.9179 18.4357 15.125Z" fill="white"/>
<path d="M14.4431 15.4603L13.6639 18.2305C13.4959 18.7944 13.8931 19.375 14.4431 19.375H15.6194C16.1694 19.375 16.5666 18.7944 16.3986 18.2305L15.6041 15.4603C15.4208 14.8466 14.6264 14.8466 14.4431 15.4603Z" fill="#ED9200"/>
<path d="M19.8898 13.2377C20.0506 13.3486 20.2237 13.4102 20.4091 13.4102C20.6687 13.4102 20.916 13.2993 21.0767 13.0774C21.3611 12.7077 21.2869 12.1654 20.916 11.8819C20.8621 11.8416 19.565 10.8717 17.7016 11.0931C17.2441 11.1547 16.9103 11.5738 16.9598 12.0421C17.0216 12.4982 17.4419 12.8309 17.9117 12.7816C19.0615 12.6461 19.8404 13.2007 19.8898 13.2377Z" fill="#D37034"/>
<path d="M9.04737 13.0775C9.20809 13.2993 9.46772 13.4103 9.72735 13.4103C9.90043 13.4103 10.0859 13.3486 10.2342 13.2377C10.2354 13.237 10.2372 13.2357 10.2397 13.234C10.319 13.1793 11.0855 12.6506 12.2123 12.794C12.6821 12.8556 13.1025 12.5229 13.1643 12.0545C13.2261 11.5861 12.8923 11.1548 12.4225 11.1055C10.5591 10.884 9.26226 11.8538 9.20837 11.8941C8.83748 12.1775 8.76302 12.7077 9.04737 13.0775Z" fill="#D37034"/>
<path d="M14.9974 21.2366C14.151 21.2366 13.3855 20.9482 12.8169 20.647C12.6132 20.5392 12.3965 20.8374 12.5542 21.0249C13.1372 21.7182 14.0125 22.4991 14.9974 22.4991C16.0476 22.4991 16.8901 21.8085 17.4513 21.1293C17.6089 20.9386 17.3512 20.6171 17.1443 20.722C16.6005 20.9977 15.8707 21.2366 14.9974 21.2366Z" fill="#990839"/>
<path d="M28.3996 15.8016C28.7657 15.4354 29.3593 15.4354 29.7254 15.8016C30.0915 16.1677 30.0915 16.7613 29.7254 17.1274L29.3528 17.5C29.3528 17.5 34.842 16.7014 35.6558 16.5625C36.0256 16.5069 36.5733 16.5625 36.5733 17.1141C36.9965 17.1494 37.3557 17.4708 37.4217 17.909C37.4741 18.2575 37.3275 18.5901 37.0671 18.7912C37.0187 19.2003 36.7025 19.5433 36.2754 19.6076L36.0763 19.6375C36.0968 20.1103 35.7575 20.5321 35.2791 20.6041C35.2791 20.6041 31.875 20.9375 31.25 21.25H26.25V19.375C26.25 18.75 26.5145 17.8605 26.875 17.5L28.3996 15.8016Z" fill="#FFC83D"/>
<path d="M37.2073 18.6578C37.1666 18.7054 37.1211 18.7491 37.0715 18.7879L37.0425 18.6223C36.9719 18.1529 36.5341 17.8297 36.0648 17.9004L31.2618 18.6232C31.2191 18.6297 31.1793 18.6003 31.1729 18.5576C31.1665 18.515 31.1958 18.4752 31.2385 18.4687L36.0416 17.7458C36.5959 17.6624 37.113 18.0439 37.1969 18.5981L37.2073 18.6578Z" fill="#D67D00"/>
<path d="M36.184 19.6213L36.0764 19.6375C36.0783 19.6807 36.0771 19.7235 36.0732 19.7657L35.9908 19.558L35.9895 19.5491C35.9189 19.0798 35.4811 18.7566 35.0118 18.8272L32.163 19.2424C32.1203 19.2486 32.0807 19.2191 32.0745 19.1764C32.0682 19.1337 32.0978 19.094 32.1405 19.0878L34.9885 18.6727C35.5401 18.5898 36.0549 18.9671 36.1426 19.5168L36.184 19.6213Z" fill="#D67D00"/>
<path d="M36.5551 16.9515C36.5663 16.9974 36.5727 17.048 36.5734 17.1038C36.5712 17.1071 36.571 17.1105 36.5735 17.1142C36.5735 17.1142 30.6691 18.0564 30.6264 18.0628C30.5837 18.0692 30.5439 18.0398 30.5375 17.9972C30.5311 17.9545 30.5605 17.9147 30.6031 17.9083L36.5551 16.9515Z" fill="#D67D00"/>
</svg>
