<svg width="220" height="36" viewBox="0 0 220 36" fill="none" xmlns="http://www.w3.org/2000/svg">
<g clip-path="url(#clip0_212_909)">
<path d="M33.1342 25.0124C31.4827 26.9391 29.3856 27.8959 26.8297 27.8959C23.1991 27.8959 20.8398 25.9299 20.8398 22.9677C20.8398 19.9269 23.0811 17.9216 26.869 17.1351C28.088 16.8599 30.1458 16.5847 33.0555 16.2701V14.8545C33.0555 12.6919 31.2074 11.0666 28.6385 11.0666C26.1613 11.0666 24.3787 12.2856 24.3787 13.9108C24.3787 14.1074 24.418 14.2647 24.4574 14.422L21.4952 14.9987C21.3772 14.6841 21.3379 14.2909 21.3379 13.8191C21.3379 10.5817 24.4967 8.18311 28.8613 8.18311C33.0817 8.18311 36.1881 10.8307 36.1881 14.4482V23.7542C36.1881 24.5406 36.7386 25.1304 37.525 25.1304C38.5866 25.1304 39.3337 23.7542 39.3337 21.893L42.0207 22.5221C42.0207 25.6022 39.9367 27.8828 37.2104 27.8828C35.1395 27.8959 33.488 26.7032 33.1342 25.0124ZM33.0555 22.142V18.6687C30.172 19.0225 28.088 19.3764 26.7904 19.7303C25.0996 20.2022 24.1035 21.3425 24.1035 22.6138C24.1035 24.1474 25.3224 25.1828 27.1836 25.1828C29.5035 25.1697 31.6662 24.0294 33.0555 22.142Z" fill="black"/>
<path d="M72.5986 21.788L68.6665 10.1097V27.5026H65.8223V8.57617H71.4189L75.2068 19.9661L78.8768 8.57617H84.4341V27.5026H81.5899V10.149L77.4874 21.788H72.5986Z" fill="black"/>
<path d="M102.679 27.5026V10.149L94.4743 27.5026H89.6641V8.57617H92.6656V24.6191L100.346 8.57617H105.668V27.5026H102.679Z" fill="black"/>
<path d="M124.818 27.5026L117.452 19.4549H114.018C114.018 23.9899 114.018 26.6637 114.057 27.5026H110.898C110.938 25.6152 110.938 22.4564 110.938 18.0394C110.938 13.6223 110.938 10.4767 110.898 8.57617H114.057C114.018 10.1883 114.018 12.8359 114.018 16.5452H117.531L124.661 8.57617H128.606L120.362 17.7641L129.235 27.5026H124.818Z" fill="black"/>
<path d="M147.611 22.0634C146.234 25.6547 142.879 27.8959 138.895 27.8959C133.495 27.8959 129.471 23.8328 129.471 18.0395C129.471 12.2856 133.495 8.18311 138.895 8.18311C143.39 8.18311 146.982 10.9487 148.004 15.2346L145.094 16.1783C144.426 13.2162 141.975 11.2895 138.947 11.2895C135.277 11.2895 132.564 14.1337 132.564 18.0264C132.564 21.9323 135.29 24.7634 138.947 24.7634C141.595 24.7634 143.797 23.2299 144.74 20.7396L147.611 22.0634Z" fill="black"/>
<path d="M13.1466 27.4762V19.2713H3.21151V27.4762H0.0527344V8.5498H3.21151V16.3615H13.1466V8.5498H16.2922V27.4762H13.1466Z" fill="black"/>
<path d="M10.5243 33.309C10.5243 34.6066 9.47576 35.6552 8.17817 35.6552C6.88059 35.6552 5.83203 34.6066 5.83203 33.309C5.83203 32.0114 6.88059 30.9629 8.17817 30.9629C9.47576 30.9629 10.5243 32.0114 10.5243 33.309Z" fill="black"/>
<path d="M10.5243 2.73042C10.5243 4.02801 9.47576 5.07656 8.17817 5.07656C6.88059 5.07656 5.83203 4.02801 5.83203 2.73042C5.83203 1.43283 6.88059 0.384277 8.17817 0.384277C9.47576 0.384277 10.5243 1.43283 10.5243 2.73042Z" fill="black"/>
<path d="M57.2246 0.371094C57.2246 3.00559 55.1013 5.08959 52.4668 5.08959C49.9109 5.08959 47.709 3.00559 47.709 0.371094H50.16C50.16 3.37258 54.7605 3.37258 54.7605 0.371094H57.2246Z" fill="black"/>
<path d="M57.4747 27.5421V10.2017L49.2829 27.5421H44.4727V8.61572H47.461V24.6586L55.1548 8.61572H60.4762V27.5421H57.4747Z" fill="black"/>
<path d="M153.639 11.9579C153.639 9.82145 155.185 8.26172 157.296 8.26172C159.065 8.26172 160.402 9.33649 160.743 10.988H159.458C159.117 10.0312 158.318 9.48066 157.309 9.48066C155.932 9.48066 154.936 10.4637 154.936 11.971C154.936 13.4652 155.932 14.4613 157.309 14.4613C158.383 14.4613 159.17 13.8715 159.484 12.8491H160.782C160.441 14.5531 159.104 15.6671 157.335 15.6671C155.172 15.654 153.639 14.1205 153.639 11.9579Z" fill="black"/>
<path d="M161.712 8.40576H165.88V9.59849H162.984V11.3286H165.618V12.4951H162.984V14.3301H165.985V15.5228H161.699V8.40576H161.712Z" fill="black"/>
<path d="M169.708 8.40576C171.176 8.40576 172.185 9.415 172.185 10.7912C172.185 12.1543 171.176 13.1636 169.708 13.1636H168.345V15.5097H167.061V8.40576H169.708ZM169.603 11.984C170.403 11.984 170.888 11.499 170.888 10.7912C170.888 10.0703 170.403 9.59849 169.603 9.59849H168.358V11.984H169.603Z" fill="black"/>
<path d="M178.187 13.5044C178.187 14.6447 177.309 15.5097 175.867 15.5097H173.01V8.40576H175.828C177.204 8.40576 177.99 9.19218 177.99 10.2801C177.99 10.9223 177.663 11.499 177.125 11.8267C177.807 12.1019 178.187 12.7179 178.187 13.5044ZM175.723 9.54607H174.294V11.3024H175.723C176.339 11.3024 176.693 10.9616 176.693 10.4242C176.706 9.89995 176.352 9.54607 175.723 9.54607ZM175.802 14.3563C176.496 14.3563 176.889 13.9762 176.889 13.3864C176.889 12.7966 176.509 12.4165 175.802 12.4165H174.294V14.3694H175.802V14.3563Z" fill="black"/>
<path d="M180.415 13.2815L183.679 8.40576H184.898V15.5097H183.613V10.6339L180.35 15.5097H179.131V8.40576H180.415V13.2815Z" fill="black"/>
<path d="M185.869 11.9579C185.869 9.82145 187.416 8.26172 189.526 8.26172C191.295 8.26172 192.632 9.33649 192.973 10.988H191.689C191.348 10.0312 190.548 9.48066 189.539 9.48066C188.163 9.48066 187.167 10.4637 187.167 11.971C187.167 13.4652 188.163 14.4613 189.539 14.4613C190.614 14.4613 191.4 13.8715 191.715 12.8491H193.012C192.672 14.5531 191.335 15.6671 189.565 15.6671C187.403 15.654 185.869 14.1205 185.869 11.9579Z" fill="black"/>
<path d="M153.979 20.582H159.549V27.686H158.264V21.7879H155.263V27.686H153.979V20.582Z" fill="black"/>
<path d="M160.533 24.1473C160.533 22.0502 162.119 20.4512 164.295 20.4512C166.458 20.4512 168.057 22.0502 168.057 24.1473C168.057 26.2444 166.458 27.8435 164.295 27.8435C162.119 27.8435 160.533 26.2444 160.533 24.1473ZM166.746 24.1473C166.746 22.7187 165.684 21.657 164.295 21.657C162.879 21.657 161.831 22.7187 161.831 24.1473C161.831 25.576 162.892 26.6376 164.295 26.6376C165.684 26.6245 166.746 25.576 166.746 24.1473Z" fill="black"/>
<path d="M174.401 26.4933H175.187V29.036H173.942V27.686H169.329V29.036H168.07V26.4933H168.647C169.302 26.0345 169.433 25.1301 169.814 20.582H174.414V26.4933H174.401ZM170.954 21.7879C170.705 24.868 170.521 25.9559 169.997 26.4933H173.103V21.7879H170.954Z" fill="black"/>
<path d="M178.62 20.582C180.088 20.582 181.097 21.5913 181.097 22.9675C181.097 24.3306 180.088 25.3398 178.62 25.3398H177.257V27.686H175.973V20.582H178.62ZM178.502 24.1733C179.302 24.1733 179.787 23.6884 179.787 22.9806C179.787 22.2597 179.302 21.7879 178.502 21.7879H177.257V24.1733H178.502Z" fill="black"/>
<path d="M186.222 27.6992L185.632 26.2312H182.578L182.001 27.6992H180.625L183.482 20.5952H184.741L187.598 27.6992H186.222ZM182.997 25.0778H185.212L184.111 22.2205L182.997 25.0778Z" fill="black"/>
<path d="M190.823 23.2821C192.278 23.2821 193.196 24.1995 193.196 25.4709C193.196 26.7685 192.278 27.686 190.823 27.686H188.176V20.582H192.658V21.7485H189.447V23.2821H190.823ZM190.705 26.5326C191.466 26.5326 191.898 26.1132 191.898 25.4971C191.898 24.8811 191.466 24.4486 190.705 24.4486H189.447V26.5326H190.705Z" fill="black"/>
<path d="M193.719 24.1473C193.719 22.0502 195.305 20.4512 197.48 20.4512C199.643 20.4512 201.242 22.0502 201.242 24.1473C201.242 26.2444 199.643 27.8435 197.48 27.8435C195.305 27.8435 193.719 26.2444 193.719 24.1473ZM199.931 24.1473C199.931 22.7187 198.87 21.657 197.48 21.657C196.065 21.657 195.016 22.7187 195.016 24.1473C195.016 25.576 196.078 26.6376 197.48 26.6376C198.883 26.6245 199.931 25.576 199.931 24.1473Z" fill="black"/>
<path d="M201.375 20.582H206.749V21.7879H204.704V27.686H203.42V21.7879H201.375V20.582Z" fill="black"/>
<path d="M211.703 27.6992L209.605 24.6453H208.806V27.6992H207.521V20.5952H208.806V23.4525H209.645L211.545 20.5952H213.053L210.693 24.0292L213.262 27.6992H211.703Z" fill="black"/>
<path d="M215.044 25.4578L218.308 20.582H219.527V27.686H218.242V22.8102L214.979 27.686H213.76V20.582H215.044V25.4578Z" fill="black"/>
</g>
<defs>
<clipPath id="clip0_212_909">
<rect width="220" height="35.3625" fill="white" transform="translate(0 0.318848)"/>
</clipPath>
</defs>
</svg>
