<svg width="40" height="40" viewBox="0 0 40 40" fill="none" xmlns="http://www.w3.org/2000/svg">
<path d="M19.8002 29.9125C19.8748 29.9687 19.9471 30.0275 20.0169 30.089C20.0881 30.0275 20.1617 29.9686 20.2377 29.9125C22.5578 28.2973 25.317 27.4314 28.144 27.4314C30.971 27.4314 33.7301 28.2973 36.0502 29.9125C36.5065 30.2559 36.8755 30.7019 37.1275 31.2144C37.3794 31.7269 37.5071 32.2915 37.5002 32.8625V37.5H2.50023V32.9C2.49379 32.3198 2.6253 31.7464 2.88392 31.227C3.14254 30.7076 3.52086 30.257 3.98772 29.9125C6.30782 28.2973 9.06699 27.4314 11.894 27.4314C14.721 27.4314 17.4801 28.2973 19.8002 29.9125Z" fill="#FF9928"/>
<path d="M13.3374 9.91253H10.4624C9.70077 9.90691 8.9469 10.0655 8.25212 10.3775C7.55733 10.6895 6.93795 11.1476 6.43617 11.7206C5.93438 12.2935 5.56198 12.9679 5.34432 13.6978C5.12667 14.4276 5.06887 15.1958 5.17487 15.95L5.259 17.227C4.24058 17.3903 3.46252 18.273 3.46252 19.3375C3.46252 20.4975 4.3866 21.4417 5.53879 21.4741L5.66237 23.35C5.82263 24.5641 6.41756 25.679 7.33692 26.4881C7.9863 27.0595 8.76645 27.451 9.60022 27.6333V28.8C9.60022 29.4001 9.83859 29.9756 10.2629 30.3999C10.6872 30.8242 11.2627 31.0625 11.8627 31.0625C12.4628 31.0625 13.0382 30.8242 13.4625 30.3999C13.8869 29.9756 14.1252 29.4001 14.1252 28.8V27.6464C14.9822 27.4702 15.7849 27.0736 16.4503 26.4881C17.3697 25.679 17.9646 24.5641 18.1249 23.35L18.2423 21.4718C18.9919 21.4313 19.6388 21.0046 19.9875 20.3871C20.3449 21.0199 21.0155 21.4524 21.7888 21.4741L21.9124 23.35C22.0726 24.5641 22.6676 25.679 23.5869 26.4881C24.2363 27.0595 25.0165 27.451 25.8502 27.6333V28.8C25.8502 29.4001 26.0886 29.9756 26.5129 30.3999C26.9372 30.8242 27.5127 31.0625 28.1127 31.0625C28.7128 31.0625 29.2882 30.8242 29.7125 30.3999C30.1369 29.9756 30.3752 29.4001 30.3752 28.8V27.6464C31.2322 27.4702 32.0349 27.0736 32.7003 26.4881C33.6197 25.679 34.2146 24.5641 34.3749 23.35L34.4923 21.4718C35.6183 21.411 36.5125 20.4787 36.5125 19.3375C36.5125 18.2874 35.7553 17.4142 34.7571 17.234L34.8374 15.95C34.9387 15.1996 34.8788 14.4363 34.6618 13.7109C34.4447 12.9855 34.0754 12.3147 33.5785 11.7433C33.0817 11.1719 32.4687 10.7131 31.7805 10.3974C31.0922 10.0817 30.3446 9.91638 29.5874 9.91253H26.7124C25.9508 9.90691 25.1969 10.0655 24.5021 10.3775C23.8073 10.6895 23.188 11.1476 22.6862 11.7206C22.1844 12.2935 21.812 12.9679 21.5943 13.6978C21.3767 14.4276 21.3189 15.1958 21.4249 15.95L21.509 17.227C20.8555 17.3318 20.301 17.7328 19.9875 18.2879C19.6806 17.7444 19.1427 17.3487 18.5071 17.234L18.5874 15.95C18.6887 15.1996 18.6288 14.4363 18.4118 13.7109C18.1947 12.9855 17.8254 12.3147 17.3285 11.7433C16.8317 11.1719 16.2187 10.7131 15.5305 10.3974C14.8422 10.0817 14.0946 9.91638 13.3374 9.91253Z" fill="#F2542F"/>
</svg>
